<svg width="20" height="20" viewBox="0 0 20 20" fill="none" xmlns="http://www.w3.org/2000/svg">
<g clip-path="url(#clip0_3310_3994)">
<path d="M4.43245 12.0863L3.73627 14.6853L1.19176 14.7391C0.43133 13.3286 0 11.7149 0 10.0001C0 8.34185 0.403283 6.7781 1.11813 5.40118H1.11868L3.384 5.8165L4.37635 8.06822C4.16865 8.67372 4.05545 9.32372 4.05545 10.0001C4.05553 10.7342 4.1885 11.4375 4.43245 12.0863Z" fill="#FBBB00"/>
<path d="M19.8253 8.13165C19.9402 8.73657 20.0001 9.3613 20.0001 9.99978C20.0001 10.7157 19.9248 11.4141 19.7814 12.0877C19.2946 14.38 18.0226 16.3817 16.2605 17.7981L16.26 17.7976L13.4067 17.652L13.0028 15.1311C14.1721 14.4454 15.0858 13.3723 15.5671 12.0877H10.2198V8.13165H15.6452H19.8253Z" fill="#518EF8"/>
<path d="M16.2599 17.7979L16.2604 17.7984C14.5467 19.1759 12.3697 20.0001 9.99994 20.0001C6.19168 20.0001 2.88068 17.8715 1.19165 14.7391L4.43233 12.0864C5.27683 14.3402 7.45102 15.9446 9.99994 15.9446C11.0955 15.9446 12.1219 15.6484 13.0027 15.1314L16.2599 17.7979Z" fill="#28B446"/>
<path d="M16.3831 2.30219L13.1435 4.95437C12.232 4.38461 11.1545 4.05547 10.0001 4.05547C7.39347 4.05547 5.17862 5.73348 4.37642 8.06812L1.11871 5.40109H1.11816C2.78247 2.1923 6.13522 0 10.0001 0C12.4265 0 14.6512 0.864297 16.3831 2.30219Z" fill="#F14336"/>
</g>
<defs>
<clipPath id="clip0_3310_3994">
<rect width="20.0001" height="20" fill="white"/>
</clipPath>
</defs>
</svg>
