<svg width="17" height="20" viewBox="0 0 17 20" fill="none" xmlns="http://www.w3.org/2000/svg">
<g clip-path="url(#clip0_3310_4002)">
<path d="M16.5574 15.5866C16.2554 16.2854 15.898 16.9286 15.4838 17.5199C14.9193 18.326 14.4571 18.884 14.1009 19.1939C13.5487 19.7025 12.957 19.963 12.3235 19.9778C11.8687 19.9778 11.3202 19.8482 10.6817 19.5853C10.0411 19.3235 9.45242 19.1939 8.91415 19.1939C8.34963 19.1939 7.74418 19.3235 7.09658 19.5853C6.448 19.8482 5.92551 19.9852 5.52603 19.9988C4.91849 20.0248 4.31292 19.7569 3.70846 19.1939C3.32266 18.8569 2.8401 18.2791 2.26202 17.4606C1.64179 16.5866 1.13187 15.573 0.732387 14.4175C0.304557 13.1694 0.0900879 11.9608 0.0900879 10.7907C0.0900879 9.45039 0.379252 8.29437 0.958443 7.32564C1.41364 6.54751 2.0192 5.9337 2.77712 5.4831C3.53503 5.0325 4.35396 4.80287 5.23588 4.78818C5.71843 4.78818 6.35124 4.93768 7.13763 5.2315C7.9218 5.52631 8.42531 5.67581 8.64606 5.67581C8.81111 5.67581 9.37045 5.501 10.3187 5.15249C11.2154 4.82929 11.9722 4.69547 12.5922 4.74818C14.2722 4.88398 15.5344 5.5473 16.3737 6.74232C14.8712 7.65414 14.128 8.93126 14.1428 10.5696C14.1563 11.8457 14.6185 12.9077 15.527 13.7509C15.9386 14.1422 16.3984 14.4447 16.9099 14.6595C16.799 14.9817 16.6819 15.2903 16.5574 15.5866ZM12.7043 0.400663C12.7043 1.40089 12.3395 2.3348 11.6123 3.19922C10.7347 4.22684 9.67318 4.82065 8.52207 4.72695C8.5074 4.60695 8.49889 4.48066 8.49889 4.34795C8.49889 3.38773 8.91625 2.36011 9.6574 1.51989C10.0274 1.09447 10.498 0.740739 11.0687 0.458562C11.6382 0.180595 12.1768 0.0268735 12.6834 0.000549316C12.6982 0.134264 12.7043 0.267987 12.7043 0.40065V0.400663Z" fill="#0D0D12"/>
</g>
<defs>
<clipPath id="clip0_3310_4002">
<rect width="16.8198" height="20" fill="white" transform="translate(0.0900879)"/>
</clipPath>
</defs>
</svg>
